<?xml version="1.0" encoding="UTF-8" standalone="no"?>
<svg
   version="1.1"
   viewBox="0 0 22 22"
   id="svg1"
   sodipodi:docname="notifications.svg"
   width="22"
   height="22"
   inkscape:version="1.3.2 (091e20ef0f, 2023-11-25)"
   xmlns:inkscape="http://www.inkscape.org/namespaces/inkscape"
   xmlns:sodipodi="http://sodipodi.sourceforge.net/DTD/sodipodi-0.dtd"
   xmlns="http://www.w3.org/2000/svg"
   xmlns:svg="http://www.w3.org/2000/svg">
  <defs
     id="defs1" />
  <sodipodi:namedview
     id="namedview1"
     pagecolor="#ffffff"
     bordercolor="#999999"
     borderopacity="1"
     inkscape:showpageshadow="2"
     inkscape:pageopacity="0"
     inkscape:pagecheckerboard="0"
     inkscape:deskcolor="#d1d1d1"
     inkscape:zoom="16.83798"
     inkscape:cx="11.699741"
     inkscape:cy="15.619451"
     inkscape:window-width="1920"
     inkscape:window-height="994"
     inkscape:window-x="0"
     inkscape:window-y="0"
     inkscape:window-maximized="1"
     inkscape:current-layer="svg1" />
  <style
     id="current-color-scheme"
     type="text/css">.ColorScheme-Text { color: #fcfcfc; } </style>
  <circle
     cx="12.148001"
     cy="-14.057058"
     r="0"
     id="circle1" />
  <g
     id="notification-inactive-2"
     transform="matrix(0.6875,0,0,0.6875,-140.81714,-468.29438)">
    <path
       style="fill:none;stroke-width:1.45455"
       inkscape:connector-curvature="0"
       d="m 204.82493,681.15546 h 32 v 32 h -32 z"
       id="path6" />
    <path
       d="m 229.29058,699.15512 v -3.49776 c 0,-3.48793 -2.14704,-6.48474 -5.36518,-7.69641 -0.32325,-1.39609 -1.6015,-2.44185 -3.12473,-2.44185 -1.52323,0 -2.80147,1.04576 -3.12473,2.44216 -3.21809,1.21164 -5.36515,4.20845 -5.36515,7.69637 v 3.49778 l -1.91253,1.8872 c -0.16956,0.16707 -0.26424,0.39114 -0.26424,0.62448 v 2.66442 c 0,0.47889 0.40393,1.55122 0.90196,1.55122 h 5.87186 c 0.005,1.91522 1.89918,2.90909 3.89283,2.90909 1.99365,0 3.88862,-0.99387 3.89335,-2.90909 h 5.87135 c 0.49837,0 0.90198,-1.07263 0.90198,-1.55122 v -2.66442 c 0,-0.23334 -0.0943,-0.45741 -0.26424,-0.62448 z m -8.49038,8.04834 c -1.0659,0 -1.93752,-0.42622 -1.94252,-1.32073 h 3.88634 c -0.005,0.89451 -0.87789,1.32073 -1.94382,1.32073 z m 8.86289,-2.77527 h -17.72484 v -2.42067 l 2.17679,-2.14765 v -4.20251 c 0,-3.16002 2.17675,-5.75644 5.28629,-6.38866 v -0.61524 c 0,-0.74711 0.62193,-1.40082 1.39934,-1.40082 0.77742,0 1.39938,0.65371 1.39938,1.40082 v 0.61524 c 3.1098,0.63194 5.28658,3.22864 5.28658,6.38866 v 4.20251 l 2.17678,2.14765 v 2.42067 z"
       id="path1-9"
       style="fill:#d3dae3;fill-opacity:1;stroke-width:0.304366"
       sodipodi:nodetypes="cscscsccssscscsssccsccsccccscssscscccc" />
  </g>
</svg>
