<?xml version="1.0" encoding="UTF-8" standalone="no"?>
<svg
   width="48"
   height="48"
   version="1.1"
   id="svg227"
   sodipodi:docname="io.neovim.nvim.svg"
   inkscape:version="1.3.2 (091e20ef0f, 2023-11-25)"
   xmlns:inkscape="http://www.inkscape.org/namespaces/inkscape"
   xmlns:sodipodi="http://sodipodi.sourceforge.net/DTD/sodipodi-0.dtd"
   xmlns:xlink="http://www.w3.org/1999/xlink"
   xmlns="http://www.w3.org/2000/svg"
   xmlns:svg="http://www.w3.org/2000/svg">
  <sodipodi:namedview
     id="namedview229"
     pagecolor="#ffffff"
     bordercolor="#666666"
     borderopacity="1.0"
     inkscape:showpageshadow="2"
     inkscape:pageopacity="0.0"
     inkscape:pagecheckerboard="0"
     inkscape:deskcolor="#d1d1d1"
     showgrid="false"
     inkscape:zoom="4.9166667"
     inkscape:cx="23.59322"
     inkscape:cy="34.067796"
     inkscape:window-width="1920"
     inkscape:window-height="994"
     inkscape:window-x="0"
     inkscape:window-y="0"
     inkscape:window-maximized="1"
     inkscape:current-layer="svg227"
     showguides="false">
    <inkscape:grid
       type="xygrid"
       id="grid2074"
       originx="0"
       originy="0"
       spacingy="1"
       spacingx="1"
       units="px"
       visible="false" />
  </sodipodi:namedview>
  <defs
     id="defs213">
    <linearGradient
       id="linearGradient2840"
       x1="-184.75"
       x2="-170.19"
       y1="-8.5412998"
       y2="-15.811"
       gradientTransform="matrix(2.8862422,0,0,2.8862419,596.21797,13.651178)"
       gradientUnits="userSpaceOnUse">
      <stop
         stop-color="#505f64"
         offset="0"
         id="stop2836"
         style="stop-color:#c6cdd1;stop-opacity:1;" />
      <stop
         stop-color="#647378"
         offset="1"
         id="stop2838" />
    </linearGradient>
    <linearGradient
       id="a"
       y1="543.79999"
       y2="503.79999"
       gradientUnits="userSpaceOnUse"
       x2="0"
       gradientTransform="matrix(1.125,0,0,1,-435.64,-499.8)">
      <stop
         stop-color="#c6cdd1"
         id="stop197" />
      <stop
         offset="1"
         stop-color="#e0e5e7"
         id="stop199" />
    </linearGradient>
    <linearGradient
       id="b"
       y1="523.79999"
       y2="503.79999"
       x2="0"
       gradientUnits="userSpaceOnUse">
      <stop
         stop-color="#2a2c2f"
         id="stop202" />
      <stop
         offset="1"
         stop-color="#424649"
         id="stop204" />
    </linearGradient>
    <linearGradient
       xlink:href="#b"
       id="c"
       y1="542.78998"
       y2="530.78998"
       x2="0"
       gradientUnits="userSpaceOnUse"
       gradientTransform="translate(-422.997,-517.1515)" />
    <linearGradient
       id="d"
       y1="29"
       x1="25"
       y2="44"
       x2="40"
       gradientUnits="userSpaceOnUse"
       gradientTransform="translate(-79.427,-14.3585)">
      <stop
         stop-color="#383e51"
         id="stop208" />
      <stop
         offset="1"
         stop-color="#655c6f"
         stop-opacity="0"
         id="stop210" />
    </linearGradient>
    <linearGradient
       id="linearGradient1166"
       x1="54.456001"
       x2="54.456001"
       y1="6.4548001"
       y2="11.072"
       gradientTransform="matrix(3.2820152,0,0,3.3101718,-71.372231,-50.573448)"
       gradientUnits="userSpaceOnUse">
      <stop
         stop-color="#ffd700"
         offset="0"
         id="stop10" />
      <stop
         stop-color="#ffb300"
         offset="1"
         id="stop12" />
    </linearGradient>
    <linearGradient
       id="linearGradient1058"
       x1="-184.75"
       x2="-170.19"
       y1="-8.5412998"
       y2="-15.811"
       gradientTransform="matrix(2.8862422,0,0,2.8839894,536.21797,48.61555)"
       gradientUnits="userSpaceOnUse">
      <stop
         stop-color="#505f64"
         offset="0"
         id="stop2" />
      <stop
         stop-color="#647378"
         offset="1"
         id="stop4" />
    </linearGradient>
    <linearGradient
       xlink:href="#b-3"
       id="c-5"
       y1="542.78998"
       y2="530.78998"
       x2="0"
       gradientUnits="userSpaceOnUse"
       gradientTransform="translate(-344.597,-502.551)" />
    <linearGradient
       id="b-3"
       y1="523.79999"
       y2="503.79999"
       x2="0"
       gradientUnits="userSpaceOnUse">
      <stop
         stop-color="#2a2c2f"
         id="stop202-5" />
      <stop
         offset="1"
         stop-color="#424649"
         id="stop204-6" />
    </linearGradient>
    <linearGradient
       gradientTransform="matrix(1.0499636,0,0,1.0499041,-517.98598,-495.93779)"
       gradientUnits="userSpaceOnUse"
       x2="426.69501"
       y2="499.92099"
       y1="547.67499"
       id="a-6"
       x1="389.32001">
      <stop
         stop-color="#18222a"
         style="stop-color:#1e2b35;stop-opacity:1"
         id="stop216" />
      <stop
         stop-color="#566069"
         offset="1"
         style="stop-color:#6d7983;stop-opacity:1"
         id="stop218" />
    </linearGradient>
    <linearGradient
       inkscape:collect="always"
       xlink:href="#a-6"
       id="linearGradient2247-2"
       gradientUnits="userSpaceOnUse"
       gradientTransform="matrix(1.0499636,0,0,1.0499041,-452.98529,-525.93778)"
       x1="389.32001"
       y1="547.67499"
       x2="426.69501"
       y2="499.92099" />
    <linearGradient
       id="b-6"
       x1="443.88"
       x2="443.88"
       y1="220.06"
       y2="820.06"
       gradientTransform="matrix(0.0479043,0,0,0.0479043,64.164094,29.293341)"
       gradientUnits="userSpaceOnUse">
      <stop
         stop-color="#4bd2f5"
         offset="0"
         id="stop238" />
      <stop
         stop-color="#4bd2f5"
         stop-opacity=".88235"
         offset=".16667"
         id="stop240" />
      <stop
         stop-color="#5587ff"
         offset="1"
         id="stop242" />
    </linearGradient>
    <linearGradient
       id="a-7"
       x1="643.88"
       x2="643.88"
       y1="260.06"
       y2="780.06"
       gradientTransform="matrix(0.0479043,0,0,0.0479043,64.164094,29.293341)"
       gradientUnits="userSpaceOnUse">
      <stop
         stop-color="#5587ff"
         offset="0"
         id="stop245" />
      <stop
         stop-color="#4bd2f5"
         stop-opacity=".88235"
         offset=".74547"
         id="stop247" />
      <stop
         stop-color="#4bd2f5"
         offset="1"
         id="stop249" />
    </linearGradient>
    <filter
       id="d-3-6"
       x="-0.054169279"
       y="-0.041481663"
       width="1.1083386"
       height="1.0829633"
       color-interpolation-filters="sRGB">
      <feGaussianBlur
         stdDeviation="9"
         id="feGaussianBlur235-1" />
    </filter>
    <filter
       id="filter1"
       x="-0.054169279"
       y="-0.041481663"
       width="1.1083386"
       height="1.0829633"
       color-interpolation-filters="sRGB">
      <feGaussianBlur
         stdDeviation="9"
         id="feGaussianBlur1" />
    </filter>
    <linearGradient
       id="_lgradient_0"
       x1="0.2"
       y1="0.83749998"
       x2="1.0904868"
       y2="0.023340708"
       gradientTransform="matrix(3.8342545,0,0,15.337017,16.726812,16.331489)"
       gradientUnits="userSpaceOnUse">
      <stop
         offset="0"
         stop-opacity="1"
         style="stop-color:#8e79ff;stop-opacity:1;"
         id="stop1" />
      <stop
         offset="51.73913043478261%"
         stop-opacity="1"
         style="stop-color:rgb(32,189,255)"
         id="stop2-9" />
      <stop
         offset="98.26086956521739%"
         stop-opacity="1"
         style="stop-color:rgb(165,254,203)"
         id="stop3" />
    </linearGradient>
    <linearGradient
       id="_lgradient_1"
       x1="0"
       y1="0.5"
       x2="1"
       y2="0.5"
       gradientTransform="matrix(13.058515,0,0,15.337017,17.471148,16.331489)"
       gradientUnits="userSpaceOnUse">
      <stop
         offset="0%"
         stop-opacity="1"
         style="stop-color:rgb(67,233,123)"
         id="stop4-5" />
      <stop
         offset="97.82608695652173%"
         stop-opacity="1"
         style="stop-color:rgb(56,249,215)"
         id="stop5" />
    </linearGradient>
    <linearGradient
       id="_lgradient_2"
       x1="0.071553186"
       y1="0.74391294"
       x2="0.99873358"
       y2="0.49568295"
       gradientTransform="matrix(28.000033,0,0,28.000032,9.6282212,9.999984)"
       gradientUnits="userSpaceOnUse">
      <stop
         offset="0"
         stop-opacity="1"
         style="stop-color:#9480ff;stop-opacity:1;"
         id="stop6" />
      <stop
         offset="51.73913043478261%"
         stop-opacity="1"
         style="stop-color:rgb(32,189,255)"
         id="stop7" />
      <stop
         offset="98.26086956521739%"
         stop-opacity="1"
         style="stop-color:rgb(165,254,203)"
         id="stop8" />
    </linearGradient>
  </defs>
  <rect
     width="41.99855"
     x="-44.99968"
     y="3.0039356"
     rx="20.999275"
     height="41.99617"
     transform="scale(-1,1)"
     style="display:inline;fill:url(#linearGradient2247-2);stroke-width:2.93982;stroke-opacity:0.55"
     id="rect223-3-4"
     ry="20.998085" />
  <path
     style="display:inline;opacity:0.3;fill:#000000;fill-opacity:1;stroke-width:2.93982;stroke-opacity:0.55"
     d="M 3.0126,23.477116 C 3.0084,23.652143 3,23.826171 3,24.002198 c 0,11.633029 9.365695,20.9981 20.999215,20.9981 11.633528,0 20.999369,-9.365071 20.999369,-20.9981 0,-0.176027 -0.008,-0.349055 -0.0126,-0.525082 -0.2773,11.388291 -9.53376,20.473117 -20.986759,20.473117 -11.457196,0 -20.709455,-9.084827 -20.986613,-20.473117"
     id="path225-7" />
  <path
     d="M 3.0126,24.52318 C 3.0084,24.348153 3,24.175125 3,23.998098 3.000001,12.365171 12.365696,3 23.999217,3 c 11.633526,0 20.999367,9.365171 20.999367,20.998098 0,0.176028 -0.008,0.350056 -0.0126,0.525083 -0.2773,-11.388289 -9.53376,-20.473116 -20.986758,-20.473116 -11.457196,0 -20.709453,9.084827 -20.986612,20.473116"
     style="display:inline;opacity:0.3;fill:#ffffff;fill-opacity:1;stroke-width:2.93982;stroke-opacity:0.55"
     id="path229-5" />
  <path
     d="m 16.727979,19.015408 3.833089,-2.68392 v 15.337017 l -3.834256,-2.683919 z"
     fill="url(#_lgradient_0)"
     id="path3"
     style="isolation:isolate;fill:url(#_lgradient_0);stroke-width:0.583335" />
  <path
     d="m 26.695407,25.093166 v -8.761678 l 3.834256,2.68392 v 9.969178 l -3.834256,2.683919 -9.224259,-13.17343 3.08992,-2.163587 z"
     fill-rule="evenodd"
     fill="url(#_lgradient_1)"
     id="path5"
     style="isolation:isolate;fill:url(#_lgradient_1);stroke-width:0.583335" />
  <path
     d="m 29.395077,34.020511 v 0 c 0.582751,-0.333084 1.329419,-0.13125 1.666002,0.449749 v 0 c 0.336584,0.581002 0.136517,1.326502 -0.446834,1.662502 v 0 c -2.267419,1.305502 -4.853338,1.948338 -7.463174,1.859087 -2.366587,-0.08051 -4.676005,-0.762419 -6.711258,-1.976918 v 0 C 15.863477,35.669594 15.676228,34.920595 16.021562,34.34426 v 0 c 0.345917,-0.576332 1.094334,-0.763584 1.671252,-0.41825 v 0 c 1.677086,1.007419 3.582254,1.565669 5.541091,1.632753 2.160085,0.07348 4.291004,-0.456752 6.161172,-1.538252 z m 4.586172,-15.179519 v 0 c -0.302167,-0.602001 -0.05891,-1.334668 0.543084,-1.635086 v 0 c 0.601999,-0.300416 1.332919,-0.05601 1.632169,0.546001 v 0 c 1.043,2.081919 1.542918,4.395421 1.463583,6.725257 -0.06067,1.776252 -0.454999,3.522755 -1.168417,5.143257 v 0 c -0.269501,0.615999 -0.988751,0.897166 -1.604752,0.627082 v 0 c -0.616,-0.269499 -0.897167,-0.988751 -0.627083,-1.604749 v 0 c 0.593832,-1.33817 0.916999,-2.782504 0.966583,-4.248422 0.06591,-1.92267 -0.35,-3.830756 -1.205167,-5.55334 z M 18.617982,13.578737 v 0 c -0.604918,0.28875 -1.332919,0.03208 -1.62517,-0.572835 v 0 c -0.291666,-0.604916 -0.03792,-1.333501 0.567003,-1.625168 v 0 c 2.037001,-0.978251 4.282253,-1.449586 6.54559,-1.372585 2.177585,0.07408 4.314338,0.652752 6.227091,1.698669 v 0 c 0.590916,0.322583 0.8085,1.064 0.485916,1.654917 v 0 c -0.322583,0.590334 -1.063999,0.807918 -1.654918,0.485334 v 0 c -1.578502,-0.863917 -3.340753,-1.344002 -5.140923,-1.405835 -1.867835,-0.06358 -3.720504,0.324333 -5.404589,1.137503 z m -5.962258,14.091016 v 0 c 0.214084,0.635833 -0.130087,1.325917 -0.767668,1.539418 v 0 c -0.637584,0.213498 -1.328835,-0.132414 -1.542335,-0.771169 v 0 C 9.8213042,26.854834 9.5798042,25.189999 9.6363882,23.522831 c 0.07524,-2.202087 0.6661668,-4.362173 1.7371678,-6.293007 v 0 c 0.322584,-0.587417 1.062251,-0.799751 1.651419,-0.473668 v 0 c 0.589166,0.326084 0.802667,1.067501 0.476584,1.65492 v 0 c -0.882585,1.596001 -1.369669,3.375753 -1.432085,5.194589 -0.04667,1.381334 0.149923,2.752169 0.58625,4.064088 z M 34.107249,15.154322 c -0.02333,0.672 -0.586835,1.198166 -1.258251,1.175417 -0.671418,-0.02275 -1.198169,-0.586834 -1.175418,-1.258252 0.02275,-0.671417 0.586834,-1.198168 1.25825,-1.174834 0.671419,0.02275 1.198168,0.586251 1.175419,1.257669 z M 15.089393,32.028424 c -0.02275,0.671418 -0.58625,1.19817 -1.257667,1.175419 -0.672002,-0.02333 -1.198168,-0.586835 -1.175419,-1.258254 0.02275,-0.671417 0.586834,-1.198166 1.258252,-1.175418 0.671417,0.02274 1.198168,0.586835 1.174834,1.258253 z m 19.488606,0.664417 c 0.02274,-0.671415 -0.504001,-1.234919 -1.175418,-1.258251 -0.671418,-0.02274 -1.234918,0.504 -1.258251,1.175419 -0.02274,0.671417 0.504,1.235499 1.175417,1.258252 0.671419,0.02274 1.235501,-0.504001 1.258252,-1.17542 z M 15.966145,14.535987 c 0.02274,-0.671419 -0.503417,-1.2355 -1.174836,-1.258252 -0.672,-0.02275 -1.235501,0.504 -1.25825,1.175418 -0.02334,0.671417 0.503417,1.234919 1.174835,1.258253 0.672,0.02275 1.235501,-0.504002 1.258251,-1.175419 z"
     fill-rule="evenodd"
     fill="url(#_lgradient_2)"
     id="path8"
     style="isolation:isolate;fill:url(#_lgradient_2);stroke-width:0.583335" />
</svg>
